<svg width="600" height="450" viewBox="0 0 600 450" fill="none" xmlns="http://www.w3.org/2000/svg">
<rect width="600" height="450" fill="#E5E5E5"/>
<g id="map" clip-path="url(#clip0)">
<path id="road" d="M24 293L51 284C67.3333 283.667 101.4 280.8 107 272C114 261 144 230 152 232C158.4 233.6 174 229.333 181 227L198 217L255 204L279 209C295.667 203.333 330.4 192.4 336 194C343 196 394 204 403 204C410.2 204 448.667 204 467 204C530.333 210 658.8 223 666 227" stroke="#888888" stroke-width="12"/>
<path id="segment5" d="M24 293L51 284C67.3333 283.667 101.4 280.8 107 272" stroke="#888888" stroke-width="12"/>
<path id="segment4" d="M107 272C114 261 144 230 152 232C158.4 233.6 174 229.333 181 227L198 217L226.5 210.5" stroke="#888888" stroke-width="12"/>
<path id="segment3" d="M403 204C394 204 343 196 336 194C330.4 192.4 295.667 203.333 279 209L255 204L226.5 210.5" stroke="#888888" stroke-width="12"/>
<path id="segment2" d="M403 204C410.2 204 448.667 204 467 204C488.567 206.043 517.687 208.898 547 211.933" stroke="#888888" stroke-width="12"/>
<path id="segment1" d="M546 211.83C565.242 213.819 584.603 215.89 602 217.862" stroke="#888888" stroke-width="12"/>
<path id="&#215;&#167;&#215;&#168;&#215;&#145;-&#215;&#153;&#215;&#160;&#215;&#145;" d="M287.28 265.536C288.128 265.44 288.84 265.24 289.416 264.936C289.992 264.632 290.472 264.104 290.856 263.352C291.24 262.6 291.48 261.544 291.576 260.184L291.984 255.144H283.344V253.68H293.952L293.88 255L293.496 259.824C293.384 262.144 292.792 263.904 291.72 265.104C290.664 266.304 289.248 266.936 287.472 267L287.28 265.536ZM283.392 260.184L283.656 258.552H285.24V271.8H283.392V260.184ZM302.996 258.072C302.996 257.032 302.772 256.288 302.324 255.84C301.876 255.376 301.236 255.144 300.404 255.144H296.156V253.68H300.812C303.5 253.68 304.844 255.168 304.844 258.144V267H302.996V258.072ZM318.204 265.536V267H314.652H307.74V265.536H314.652V258.072C314.652 257.032 314.428 256.288 313.98 255.84C313.532 255.376 312.892 255.144 312.06 255.144H307.74V253.68H312.468C315.156 253.68 316.5 255.168 316.5 258.144V265.536H318.204ZM320.132 260.304H325.58V261.672H320.132V260.304ZM328.403 256.488L328.091 253.68H329.915L330.251 256.488V260.064L330.227 261.576L328.403 261.96V256.488ZM333.05 265.536H337.226V257.544C337.226 256.76 337.066 256.184 336.746 255.816C336.442 255.432 335.978 255.192 335.354 255.096L333.746 254.856L334.01 253.416L336.098 253.728C337.058 253.888 337.794 254.288 338.306 254.928C338.818 255.552 339.074 256.408 339.074 257.496V267H333.05V265.536ZM352.422 265.536V267H348.87H341.958V265.536H348.87V258.072C348.87 257.032 348.646 256.288 348.198 255.84C347.75 255.376 347.11 255.144 346.278 255.144H341.958V253.68H346.686C349.374 253.68 350.718 255.168 350.718 258.144V265.536H352.422Z" fill="#888888"/>
<path id="&#215;&#148;&#215;&#149;&#215;&#167;&#215;&#170; &#215;&#151;&#215;&#170;&#215;&#164;" d="M469.672 136.072C469.672 135.032 469.448 134.288 469 133.84C468.552 133.376 467.912 133.144 467.08 133.144H461.464V131.68H467.488C470.176 131.68 471.52 133.168 471.52 136.144V145H469.672V136.072ZM461.44 138.52L461.704 136.912H463.288V145H461.44V138.52ZM474.974 134.488L474.662 131.68H476.486L476.822 134.488V145H474.974V134.488ZM483.749 143.536C484.597 143.44 485.309 143.24 485.885 142.936C486.461 142.632 486.941 142.104 487.325 141.352C487.709 140.6 487.949 139.544 488.045 138.184L488.453 133.144H479.813V131.68H490.421L490.349 133L489.965 137.824C489.853 140.144 489.261 141.904 488.189 143.104C487.133 144.304 485.717 144.936 483.941 145L483.749 143.536ZM479.861 138.184L480.125 136.552H481.709V149.8H479.861V138.184ZM492.169 144.016C493.113 143.936 493.761 143.672 494.113 143.224C494.481 142.76 494.665 142.064 494.665 141.136V131.68H500.545C503.233 131.68 504.577 133.168 504.577 136.144V145H502.729V136.072C502.729 135.032 502.505 134.288 502.057 133.84C501.609 133.376 500.969 133.144 500.137 133.144H496.513V140.944C496.513 142.352 496.185 143.408 495.529 144.112C494.873 144.8 493.817 145.208 492.361 145.336L492.169 144.016ZM518.825 131.68C520.105 131.68 521.097 132.088 521.801 132.904C522.505 133.704 522.857 134.896 522.857 136.48V145H521.009V136.408C521.009 135.336 520.785 134.528 520.337 133.984C519.905 133.424 519.265 133.144 518.417 133.144H514.337V145H512.489V132.304V131.68H518.825ZM525.028 144.016C525.972 143.936 526.62 143.672 526.972 143.224C527.34 142.76 527.524 142.064 527.524 141.136V131.68H533.404C536.092 131.68 537.436 133.168 537.436 136.144V145H535.588V136.072C535.588 135.032 535.364 134.288 534.916 133.84C534.468 133.376 533.828 133.144 532.996 133.144H529.372V140.944C529.372 142.352 529.044 143.408 528.388 144.112C527.732 144.8 526.676 145.208 525.22 145.336L525.028 144.016ZM540.855 143.536H544.791C546.039 143.536 547.031 143.192 547.767 142.504C548.519 141.8 548.895 140.648 548.895 139.048V137.584C548.895 136.128 548.615 135.024 548.055 134.272C547.495 133.52 546.647 133.144 545.511 133.144H542.991L542.367 135.808C542.271 136.256 542.223 136.656 542.223 137.008C542.223 137.552 542.367 137.976 542.655 138.28C542.959 138.584 543.455 138.8 544.143 138.928L543.759 140.2C542.639 140.088 541.823 139.776 541.311 139.264C540.815 138.736 540.567 138.008 540.567 137.08C540.567 136.632 540.615 136.16 540.711 135.664L541.623 131.68H545.823C547.375 131.68 548.575 132.192 549.423 133.216C550.287 134.24 550.727 135.712 550.743 137.632V138.976C550.743 141.056 550.223 142.584 549.183 143.56C548.143 144.52 546.783 145 545.103 145H540.855V143.536Z" fill="#888888"/>
<path id="&#215;&#159;&#215;&#146; &#215;&#170;&#215;&#158;&#215;&#168;" d="M134.872 290.488L134.56 287.68H136.384L136.72 290.488V305.8H134.872V290.488ZM144.415 301L143.815 297.736C143.351 298.616 142.775 299.352 142.087 299.944C141.415 300.536 140.607 301 139.663 301.336L138.991 299.848C140.063 299.464 140.967 298.96 141.703 298.336C142.439 297.712 143.039 296.912 143.503 295.936V291.52C143.503 290.72 143.399 290.144 143.191 289.792C142.999 289.424 142.623 289.192 142.063 289.096L140.527 288.856L140.791 287.416L142.807 287.728C143.735 287.872 144.391 288.232 144.775 288.808C145.159 289.384 145.351 290.24 145.351 291.376V296.008L146.191 301H144.415ZM152.63 300.016C153.574 299.936 154.222 299.672 154.574 299.224C154.942 298.76 155.126 298.064 155.126 297.136V287.68H161.006C163.694 287.68 165.038 289.168 165.038 292.144V301H163.19V292.072C163.19 291.032 162.966 290.288 162.518 289.84C162.07 289.376 161.43 289.144 160.598 289.144H156.974V296.944C156.974 298.352 156.646 299.408 155.99 300.112C155.334 300.8 154.278 301.208 152.822 301.336L152.63 300.016ZM179.929 294.208C179.929 296.48 179.449 298.224 178.489 299.44C177.545 300.656 176.185 301.264 174.409 301.264C173.801 301.264 173.145 301.192 172.441 301.048L172.633 299.584C173.161 299.712 173.705 299.776 174.265 299.776C175.593 299.776 176.569 299.32 177.193 298.408C177.833 297.48 178.153 296.104 178.153 294.28C178.153 290.792 177.009 289.048 174.721 289.048C173.857 289.048 173.161 289.296 172.633 289.792C172.105 290.288 171.745 290.936 171.553 291.736L169.849 301H168.001L169.777 291.664L167.929 287.68H169.849L171.049 290.56C171.369 289.552 171.881 288.8 172.585 288.304C173.289 287.792 174.089 287.536 174.985 287.536C176.505 287.536 177.705 288.064 178.585 289.12C179.481 290.16 179.929 291.856 179.929 294.208ZM188.988 292.072C188.988 291.032 188.764 290.288 188.316 289.84C187.868 289.376 187.228 289.144 186.396 289.144H182.148V287.68H186.804C189.492 287.68 190.836 289.168 190.836 292.144V301H188.988V292.072Z" fill="#888888"/>
<path id="4 &#215;&#169;&#215;&#153;&#215;&#145;&#215;&#155;" d="M422.334 38.76H420.732V42H419.49V38.76H414.306V37.914L419.328 30.516H420.732V37.716H422.334V38.76ZM419.49 37.716V34.152C419.49 33.696 419.52 32.976 419.58 31.992H419.508C419.268 32.424 419.082 32.742 418.95 32.946L418.572 33.576L415.71 37.716H419.49ZM436.831 34.584C436.843 37.128 436.165 39.024 434.797 40.272C433.441 41.52 431.377 42.156 428.605 42.18L427.345 32.01H428.677L429.289 37.104C429.829 36.816 430.249 36.51 430.549 36.186C430.849 35.85 431.065 35.442 431.197 34.962C431.341 34.482 431.425 33.864 431.449 33.108L431.467 32.046H432.799L432.781 33.09C432.757 34.41 432.493 35.46 431.989 36.24C431.485 37.008 430.627 37.656 429.415 38.184L429.757 40.956C431.665 40.836 433.093 40.266 434.041 39.246C434.989 38.214 435.457 36.678 435.445 34.638L435.427 32.01H436.813L436.831 34.584ZM439.205 34.116L438.971 32.01H440.339L440.591 34.116V36.798L440.573 37.932L439.205 38.22V34.116ZM450.592 40.902V42H447.928H442.744V40.902H447.928V35.304C447.928 34.524 447.76 33.966 447.424 33.63C447.088 33.282 446.608 33.108 445.984 33.108H442.744V32.01H446.29C448.306 32.01 449.314 33.126 449.314 35.358V40.902H450.592ZM452.111 40.902H454.487C455.459 40.902 456.191 40.62 456.683 40.056C457.175 39.492 457.421 38.664 457.421 37.572V36.438C457.421 35.346 457.175 34.518 456.683 33.954C456.191 33.39 455.459 33.108 454.487 33.108H452.111V32.01H454.757C456.053 32.01 457.049 32.394 457.745 33.162C458.453 33.93 458.807 35.04 458.807 36.492V37.518C458.807 38.97 458.453 40.08 457.745 40.848C457.049 41.616 456.053 42 454.757 42H452.111V40.902Z" fill="#888888"/>
<path id="&#215;&#159;&#215;&#149;&#215;&#167;&#215;&#168;&#215;&#153;&#215;&#148; &#215;&#167;&#215;&#168;&#215;&#144;&#215;&#164;" d="M83.404 113.116L83.17 111.01H84.538L84.79 113.116V124.6H83.404V113.116ZM87.4294 113.116L87.1954 111.01H88.5634L88.8154 113.116V121H87.4294V113.116ZM94.0108 119.902C94.6468 119.83 95.1808 119.68 95.6128 119.452C96.0448 119.224 96.4048 118.828 96.6928 118.264C96.9808 117.7 97.1608 116.908 97.2328 115.888L97.5388 112.108H91.0588V111.01H99.0148L98.9608 112L98.6728 115.618C98.5888 117.358 98.1448 118.678 97.3408 119.578C96.5488 120.478 95.4868 120.952 94.1548 121L94.0108 119.902ZM91.0948 115.888L91.2928 114.664H92.4808V124.6H91.0948V115.888ZM105.798 114.304C105.798 113.524 105.63 112.966 105.294 112.63C104.958 112.282 104.478 112.108 103.854 112.108H100.668V111.01H104.16C106.176 111.01 107.184 112.126 107.184 114.358V121H105.798V114.304ZM109.842 113.116L109.608 111.01H110.976L111.228 113.116V115.798L111.21 116.932L109.842 117.22V113.116ZM119.717 114.304C119.717 113.524 119.549 112.966 119.213 112.63C118.877 112.282 118.397 112.108 117.773 112.108H113.561V111.01H118.079C120.095 111.01 121.103 112.126 121.103 114.358V121H119.717V114.304ZM113.543 116.14L113.741 114.934H114.929V121H113.543V116.14ZM129.853 119.902C130.489 119.83 131.023 119.68 131.455 119.452C131.887 119.224 132.247 118.828 132.535 118.264C132.823 117.7 133.003 116.908 133.075 115.888L133.381 112.108H126.901V111.01H134.857L134.803 112L134.515 115.618C134.431 117.358 133.987 118.678 133.183 119.578C132.391 120.478 131.329 120.952 129.997 121L129.853 119.902ZM126.937 115.888L127.135 114.664H128.323V124.6H126.937V115.888ZM141.639 114.304C141.639 113.524 141.471 112.966 141.135 112.63C140.799 112.282 140.319 112.108 139.695 112.108H136.509V111.01H140.001C142.017 111.01 143.025 112.126 143.025 114.358V121H141.639V114.304ZM152.217 121L148.131 114.862L146.205 121H144.873L146.835 114.808L147.321 113.62L145.665 111.01H147.087L148.689 113.53L150.381 116.032L150.795 114.538L151.875 111.01H153.225L151.191 117.256L153.729 121H152.217ZM155.72 119.902H158.672C159.608 119.902 160.352 119.644 160.904 119.128C161.468 118.6 161.75 117.736 161.75 116.536V115.438C161.75 114.346 161.54 113.518 161.12 112.954C160.7 112.39 160.064 112.108 159.212 112.108H157.322L156.854 114.106C156.782 114.442 156.746 114.742 156.746 115.006C156.746 115.414 156.854 115.732 157.07 115.96C157.298 116.188 157.67 116.35 158.186 116.446L157.898 117.4C157.058 117.316 156.446 117.082 156.062 116.698C155.69 116.302 155.504 115.756 155.504 115.06C155.504 114.724 155.54 114.37 155.612 113.998L156.296 111.01H159.446C160.61 111.01 161.51 111.394 162.146 112.162C162.794 112.93 163.124 114.034 163.136 115.474V116.482C163.136 118.042 162.746 119.188 161.966 119.92C161.186 120.64 160.166 121 158.906 121H155.72V119.902Z" fill="#888888"/>
<path id="&#215;&#167;&#215;&#153;&#215;&#156;&#215;&#144;&#215;&#153;&#215;&#145;" d="M85.96 236.902C86.596 236.83 87.13 236.68 87.562 236.452C87.994 236.224 88.354 235.828 88.642 235.264C88.93 234.7 89.11 233.908 89.182 232.888L89.488 229.108H83.008V228.01H90.964L90.91 229L90.622 232.618C90.538 234.358 90.094 235.678 89.29 236.578C88.498 237.478 87.436 237.952 86.104 238L85.96 236.902ZM83.044 232.888L83.242 231.664H84.43V241.6H83.044V232.888ZM93.2829 230.116L93.0489 228.01H94.4169L94.6689 230.116V232.798L94.6509 233.932L93.2829 234.22V230.116ZM103.644 228.01V229.18L100.17 238H98.7843L102.258 229.108H96.6783V225.094H97.9563V228.01H103.644ZM111.858 238L107.772 231.862L105.846 238H104.514L106.476 231.808L106.962 230.62L105.306 228.01H106.728L108.33 230.53L110.022 233.032L110.436 231.538L111.516 228.01H112.866L110.832 234.256L113.37 238H111.858ZM115.396 230.116L115.162 228.01H116.53L116.782 230.116V232.798L116.764 233.932L115.396 234.22V230.116ZM126.784 236.902V238H124.12H118.936V236.902H124.12V231.304C124.12 230.524 123.952 229.966 123.616 229.63C123.28 229.282 122.8 229.108 122.176 229.108H118.936V228.01H122.482C124.498 228.01 125.506 229.126 125.506 231.358V236.902H126.784Z" fill="#888888"/>
<path id="&#215;&#148;&#215;&#161;&#215;&#168;&#215;&#149;&#215;&#145;" d="M47.254 255.304C47.254 254.524 47.086 253.966 46.75 253.63C46.414 253.282 45.934 253.108 45.31 253.108H41.098V252.01H45.616C47.632 252.01 48.64 253.126 48.64 255.358V262H47.254V255.304ZM41.08 257.14L41.278 255.934H42.466V262H41.08V257.14ZM59.0602 256.222C59.1802 259.978 56.8042 261.964 51.9322 262.18L50.8342 253.108L50.7082 252.01H55.6222C56.6782 252.01 57.5002 252.34 58.0882 253C58.6882 253.648 59.0062 254.536 59.0422 255.664L59.0602 256.222ZM53.1562 260.902C54.5842 260.77 55.7122 260.356 56.5402 259.66C57.3682 258.964 57.7462 257.806 57.6742 256.186V255.754C57.6742 254.974 57.4822 254.338 57.0982 253.846C56.7262 253.354 56.1982 253.108 55.5142 253.108H52.2202L53.1562 260.902ZM65.8719 255.304C65.8719 254.524 65.7039 253.966 65.3679 253.63C65.0319 253.282 64.5519 253.108 63.9279 253.108H60.7419V252.01H64.2339C66.2499 252.01 67.2579 253.126 67.2579 255.358V262H65.8719V255.304ZM69.9157 254.116L69.6817 252.01H71.0497L71.3017 254.116V262H69.9157V254.116ZM81.3031 260.902V262H78.6391H73.4551V260.902H78.6391V255.304C78.6391 254.524 78.4711 253.966 78.1351 253.63C77.7991 253.282 77.3191 253.108 76.6951 253.108H73.4551V252.01H77.0011C79.0171 252.01 80.0251 253.126 80.0251 255.358V260.902H81.3031Z" fill="#888888"/>
<path id="&#215;&#159;&#215;&#149;&#215;&#153;&#215;&#168;&#215;&#149;&#215;&#146; &#215;&#159;&#215;&#145;" d="M186.404 137.116L186.17 135.01H187.538L187.79 137.116V148.6H186.404V137.116ZM190.429 137.116L190.195 135.01H191.563L191.815 137.116V145H190.429V137.116ZM194.455 137.116L194.221 135.01H195.589L195.841 137.116V139.798L195.823 140.932L194.455 141.22V137.116ZM202.944 138.304C202.944 137.524 202.776 136.966 202.44 136.63C202.104 136.282 201.624 136.108 201 136.108H197.814V135.01H201.306C203.322 135.01 204.33 136.126 204.33 138.358V145H202.944V138.304ZM206.988 137.116L206.754 135.01H208.122L208.374 137.116V145H206.988V137.116ZM214.145 145L213.695 142.552C213.347 143.212 212.915 143.764 212.399 144.208C211.895 144.652 211.289 145 210.581 145.252L210.077 144.136C210.881 143.848 211.559 143.47 212.111 143.002C212.663 142.534 213.113 141.934 213.461 141.202V137.89C213.461 137.29 213.383 136.858 213.227 136.594C213.083 136.318 212.801 136.144 212.381 136.072L211.229 135.892L211.427 134.812L212.939 135.046C213.635 135.154 214.127 135.424 214.415 135.856C214.703 136.288 214.847 136.93 214.847 137.782V141.256L215.477 145H214.145ZM221.314 137.116L221.08 135.01H222.448L222.7 137.116V148.6H221.314V137.116ZM232.702 143.902V145H230.038H224.854V143.902H230.038V138.304C230.038 137.524 229.87 136.966 229.534 136.63C229.198 136.282 228.718 136.108 228.094 136.108H224.854V135.01H228.4C230.416 135.01 231.424 136.126 231.424 138.358V143.902H232.702Z" fill="#888888"/>
<path id="&#215;&#159;&#215;&#149;&#215;&#156;&#215;&#153;&#215;&#153;&#215;&#144;" d="M84.404 29.116L84.17 27.01H85.538L85.79 29.116V40.6H84.404V29.116ZM88.4294 29.116L88.1954 27.01H89.5634L89.8154 29.116V37H88.4294V29.116ZM98.7908 27.01V28.18L95.3168 37H93.9308L97.4048 28.108H91.8248V24.094H93.1028V27.01H98.7908ZM101.015 29.116L100.781 27.01H102.149L102.401 29.116V31.798L102.383 32.932L101.015 33.22V29.116ZM105.041 29.116L104.807 27.01H106.175L106.427 29.116V31.798L106.409 32.932L105.041 33.22V29.116ZM115.6 37L111.514 30.862L109.588 37H108.256L110.218 30.808L110.704 29.62L109.048 27.01H110.47L112.072 29.53L113.764 32.032L114.178 30.538L115.258 27.01H116.608L114.574 33.256L117.112 37H115.6Z" fill="#888888"/>
<path id="Vector 1" d="M428 60C422 89 409 147.8 405 151C400 155 397 184 398 197C399 210 405 260 398 283C392.4 301.4 379.667 379.333 374 416" stroke="#888888" stroke-width="2"/>
<path id="Vector 2" d="M434 60C428 89 415 147.8 411 151C406 155 403 184 404 197C405 210 411 260 404 283C398.4 301.4 385.667 379.333 380 416" stroke="#888888" stroke-width="2"/>
<path id="Vector 3" d="M101 58C89.6667 71.3333 66.2 102.6 63 121C59 144 50 208 45 229C40 250 25 306 21 309C17 312 20 317 14 325" stroke="#888888" stroke-width="2"/>
<path id="Vector 4" d="M94 58C82.6667 71.3333 59.2 102.6 56 121C52 144 43 208 38 229C33 250 18 306 14 309C10 312 13 317 7 325" stroke="#888888" stroke-width="2"/>
<path id="Vector 5" d="M263 134L213 155C217.333 174.333 225.2 215.6 222 226C218 239 219 266 213 268C207 270 186 334 189 347" stroke="#888888" stroke-width="2"/>
<path id="Vector 6" d="M51 227C60 233.333 81.6 247 96 251C114 256 105 250 129 265C153 280 155 285 158 309C160.4 328.2 155.667 347 153 354" stroke="#888888" stroke-width="2"/>
<path id="&#215;&#159;&#215;&#149;&#215;&#161;&#215;&#160;&#215;&#153;&#215;&#156;&#215;&#153;&#215;&#145;" d="M508.404 273.116L508.17 271.01H509.538L509.79 273.116V284.6H508.404V273.116ZM512.429 273.116L512.195 271.01H513.563L513.815 273.116V281H512.429V273.116ZM524.285 275.222C524.405 278.978 522.029 280.964 517.157 281.18L516.059 272.108L515.933 271.01H520.847C521.903 271.01 522.725 271.34 523.313 272C523.913 272.648 524.231 273.536 524.267 274.664L524.285 275.222ZM518.381 279.902C519.809 279.77 520.937 279.356 521.765 278.66C522.593 277.964 522.971 276.806 522.899 275.186V274.754C522.899 273.974 522.707 273.338 522.323 272.846C521.951 272.354 521.423 272.108 520.739 272.108H517.445L518.381 279.902ZM525.548 279.902H528.68V273.908C528.68 273.32 528.56 272.888 528.32 272.612C528.092 272.324 527.744 272.144 527.276 272.072L526.07 271.892L526.268 270.812L527.834 271.046C528.554 271.166 529.106 271.466 529.49 271.946C529.874 272.414 530.066 273.056 530.066 273.872V281H525.548V279.902ZM532.715 273.116L532.481 271.01H533.849L534.101 273.116V275.798L534.083 276.932L532.715 277.22V273.116ZM543.076 271.01V272.18L539.602 281H538.216L541.69 272.108H536.11V268.094H537.388V271.01H543.076ZM545.3 273.116L545.066 271.01H546.434L546.686 273.116V275.798L546.668 276.932L545.3 277.22V273.116ZM556.688 279.902V281H554.024H548.84V279.902H554.024V274.304C554.024 273.524 553.856 272.966 553.52 272.63C553.184 272.282 552.704 272.108 552.08 272.108H548.84V271.01H552.386C554.402 271.01 555.41 272.126 555.41 274.358V279.902H556.688Z" fill="#888888"/>
<path id="Vector 7" d="M546 225L511 220V258H535V249H546V225Z" stroke="#888888" stroke-width="2"/>
<circle id="dot1" cx="584" cy="195" r="6" fill="#BBBBBB"/>
<circle id="dot2" cx="571" cy="238" r="6" fill="#BBBBBB"/>
<circle id="dot5" cx="428" cy="179" r="6" fill="#BBBBBB"/>
<circle id="dot4" cx="527" cy="237" r="6" fill="#BBBBBB"/>
<circle id="dot6" cx="258" cy="179" r="6" fill="#BBBBBB"/>
<circle id="dot7" cx="203" cy="238" r="6" fill="#BBBBBB"/>
<circle id="dot9" cx="124" cy="287" r="6" fill="#BBBBBB"/>
<circle id="dot10" cx="67" cy="267" r="6" fill="#BBBBBB"/>
<circle id="dot8" cx="163" cy="253" r="6" fill="#BBBBBB"/>
<circle id="dot3" cx="559" cy="191" r="6" fill="#BBBBBB"/>
<path id="Vector 8" d="M264 128L257 81C274.667 80.6667 310.8 81.6 314 88C317.2 94.4 346.667 82.6667 361 76L375 62L413 76L420 71" stroke="#888888" stroke-width="2" stroke-dasharray="4 4"/>
<path id="Vector 9" d="M223 266L242 272C248.667 290.667 261.8 332.4 261 350C261 354.8 286.333 352 299 350V381L372 410" stroke="#888888" stroke-width="2" stroke-dasharray="4 4"/>
<path id="Vector 10" d="M413 225L426 238L420 249L484 259L478 310L514 315L506 409L565 402V424H594" stroke="#888888" stroke-width="2" stroke-dasharray="4 4"/>
<path id="Vector 11" d="M38 299H48V321H73V313H106L120 332H144L190 313" stroke="#888888" stroke-width="2" stroke-dasharray="4 4"/>
<path id="Vector 12" d="M252 84C244.667 80.6667 227.8 77.2 219 90L224 102L206 110L214 130L206 153" stroke="#888888" stroke-width="2" stroke-dasharray="4 4"/>
<path id="Arrow 1" d="M283.061 13.9393C282.475 13.3536 281.525 13.3536 280.939 13.9393L271.393 23.4853C270.808 24.0711 270.808 25.0208 271.393 25.6066C271.979 26.1924 272.929 26.1924 273.515 25.6066L282 17.1213L290.485 25.6066C291.071 26.1924 292.021 26.1924 292.607 25.6066C293.192 25.0208 293.192 24.0711 292.607 23.4853L283.061 13.9393ZM283.5 37V15H280.5V37H283.5Z" fill="#888888"/>
<path id="&#215;&#166;" d="M284.536 58.576L289.288 67H284.068H272.08V63.112H281.872L272.476 46.444H277.696L281.764 53.68L284.716 46.444H289.828L284.536 58.576Z" fill="#888888"/>
</g>
<defs>
<clipPath id="clip0">
<rect width="600" height="450" fill="white"/>
</clipPath>
</defs>
</svg>
